<svg xmlns="http://www.w3.org/2000/svg" viewBox="0 0 26.3 26.3"><defs><style>.cls-1{fill:#fff;}</style></defs><g id="Layer_2" data-name="Layer 2"><g id="Layer_1-2" data-name="Layer 1"><path class="cls-1" d="M26.3,6.31V20c-.09.38-.14.76-.24,1.13a7.13,7.13,0,0,1-6.66,5.2c-4.16,0-8.31,0-12.47,0a6.38,6.38,0,0,1-2-.36A7.17,7.17,0,0,1,0,19.06c0-3.95,0-7.9,0-11.85a7,7,0,0,1,0-1A7.08,7.08,0,0,1,4,.69,8,8,0,0,1,6.34,0H20l.38.08a7.05,7.05,0,0,1,5.18,3.79A7.77,7.77,0,0,1,26.3,6.31Zm-1.56,6.4c0-1.7.09-3.83,0-6a5.34,5.34,0,0,0-3-4.59,5.7,5.7,0,0,0-2.72-.6h-10c-.71,0-1.42,0-2.13,0a5.44,5.44,0,0,0-4.58,3,5.68,5.68,0,0,0-.61,2.75v10c0,.7,0,1.41,0,2.12a5.48,5.48,0,0,0,3,4.58,5.63,5.63,0,0,0,2.73.61h10.8c.46,0,.92,0,1.38,0a5.44,5.44,0,0,0,4.59-3.05,5.5,5.5,0,0,0,.6-2.67C24.75,17,24.74,15.08,24.74,12.71Z"/><path class="cls-1" d="M6,13.14a7.21,7.21,0,1,1,7.19,7.2A7.2,7.2,0,0,1,6,13.14Zm6.91,5.59a5.6,5.6,0,1,0-5.31-5.67A5.6,5.6,0,0,0,12.87,18.73Z"/><path class="cls-1" d="M18.38,5.5a2.15,2.15,0,0,1,4.29,0,2.15,2.15,0,1,1-4.29,0Zm2.67,0A.52.52,0,0,0,20.51,5a.54.54,0,1,0,0,1.07A.52.52,0,0,0,21.05,5.52Z"/></g></g></svg>