<svg xmlns="http://www.w3.org/2000/svg" viewBox="0 0 30.01 26.3"><defs><style>.cls-1{fill:#fff;}</style></defs><g id="Layer_2" data-name="Layer 2"><g id="Layer_1-2" data-name="Layer 1"><path class="cls-1" d="M30,1.78c-.27,1.26-.54,2.52-.8,3.78q-1.89,9-3.75,18L25.16,25a1.43,1.43,0,0,1-2.39.9l-6.35-4.6c-.39-.29-.55-.29-.93,0l-3.41,2.78a1.43,1.43,0,0,1-1.92.07,1.72,1.72,0,0,1-.5-.85L7.38,16a.78.78,0,0,0-.54-.57C4.9,14.72,3,14,1,13.26a1.39,1.39,0,0,1-1-1.4,1.35,1.35,0,0,1,1-1.31l2.68-1L27.77.21a1.67,1.67,0,0,1,1.62,0,1.5,1.5,0,0,1,.62.86Zm-1.25-.27c0-.19-.08-.27-.24-.23a2.46,2.46,0,0,0-.38.14L1.76,11.59l-.33.13c-.07,0-.15.07-.15.16a.19.19,0,0,0,.16.19l.16.06c2.08.78,4.15,1.56,6.23,2.32a.89.89,0,0,1,.58.61c0,.12.07.24.11.36l2.34,7.52c.12.39.18.41.51.14l3.38-2.75a1.75,1.75,0,0,1,2.34-.07l1.26.91,5,3.66c.4.29.46.27.56-.2s.24-1.11.35-1.66q2.07-10,4.15-20C28.55,2.5,28.66,2,28.76,1.51Z"/><path class="cls-1" d="M9.35,14.51a1.91,1.91,0,0,1,1-1.72l3.06-1.88,8.9-5.49a1.36,1.36,0,0,1,.7-.26.77.77,0,0,1,.74.43.74.74,0,0,1-.07.88A10.5,10.5,0,0,1,22.5,7.61l-5.28,4.9c-1.15,1.07-2.28,2.17-3.46,3.2a2.59,2.59,0,0,0-.9,1.86c0,.62-.15,1.24-.25,1.85a1,1,0,0,1-1.44.77,1,1,0,0,1-.44-.63c-.44-1.54-.88-3.08-1.31-4.62A2.55,2.55,0,0,1,9.35,14.51Zm10.1-5.79,0,0-.1.06-8.25,5.08c-.46.29-.54.47-.39,1,.22.81.46,1.62.69,2.42q.06.24.15.51a.38.38,0,0,0,.07-.25,3.51,3.51,0,0,1,1-2.4c1.33-1.22,2.64-2.45,3.95-3.67Z"/><path class="cls-1" d="M24.34,15.64a.61.61,0,0,1,.59.76c-.14.78-.32,1.55-.48,2.32l-.81,3.71-.06.26a.65.65,0,0,1-.75.5.63.63,0,0,1-.47-.78c.21-1,.44-2.08.67-3.12s.43-2,.64-3C23.77,15.85,24,15.64,24.34,15.64Z"/><path class="cls-1" d="M25,12.89a.56.56,0,0,1,.52.39,1.25,1.25,0,0,1-.25,1.1.57.57,0,0,1-.7.08c-.31-.16-.39-.44-.27-.92S24.57,12.9,25,12.89Z"/></g></g></svg>