<svg xmlns="http://www.w3.org/2000/svg" viewBox="0 0 32.24 26.3"><defs><style>.cls-1{fill:#fff;}</style></defs><g id="Layer_2" data-name="Layer 2"><g id="Layer_1-2" data-name="Layer 1"><path class="cls-1" d="M32.24,3.71a6,6,0,0,1-1.66,2.6,3.55,3.55,0,0,1-.71.51.51.51,0,0,0-.32.54,19.35,19.35,0,0,1-1.6,7.8,18.26,18.26,0,0,1-9.07,9.62,15.05,15.05,0,0,1-5.74,1.48,30.84,30.84,0,0,1-9.8-1A9.09,9.09,0,0,1,.49,24a1.13,1.13,0,0,1-.41-.43.74.74,0,0,1,.56-1.07c.55-.08,1.11-.1,1.66-.13a12.61,12.61,0,0,0,5.2-1.58A1.42,1.42,0,0,0,7,20.61a6.45,6.45,0,0,1-5.22-4.42.67.67,0,0,1,.14-.83.76.76,0,0,1,.94,0,4.49,4.49,0,0,0,2.12.58l.23,0-.49-.33a10.61,10.61,0,0,1-4.1-5.38.73.73,0,0,1,.2-.83.64.64,0,0,1,.84,0,4.69,4.69,0,0,0,1.92.89l.18,0A10.18,10.18,0,0,1,2.23,8.23,6.89,6.89,0,0,1,2,1.88c.13-.3.29-.6.43-.91s.2-.23.38-.06c.63.62,1.24,1.26,1.89,1.85a18.1,18.1,0,0,0,7.49,4c.9.25,1.8.46,2.71.66.39.09.38.09.4-.29A7.26,7.26,0,0,1,19.49.66a6,6,0,0,1,5.43,0,18.31,18.31,0,0,1,1.73.83.58.58,0,0,0,.53.05c1.19-.39,2.33-.9,3.48-1.37l.24-.1a.62.62,0,0,1,.67.12.6.6,0,0,1,.14.67,7.68,7.68,0,0,1-1,1.88L30.5,3a1.73,1.73,0,0,0,.71-.18.73.73,0,0,1,1,.36ZM2.16,23.51a17.05,17.05,0,0,0,5,1.33c1.25.17,2.5.22,3.76.28a16.41,16.41,0,0,0,4.31-.32,15.73,15.73,0,0,0,8.09-4.64,18.21,18.21,0,0,0,4.41-7.9,18.8,18.8,0,0,0,.66-5.63.5.5,0,0,1,.38-.58,3.46,3.46,0,0,0,1.75-1.47c0-.07.13-.15.08-.22s-.17,0-.25,0l-1.7.56a.57.57,0,0,1-.75-.39.73.73,0,0,1,.23-.74c.32-.29.66-.58,1-.9A5.77,5.77,0,0,0,30,1.67c-.86.32-1.67.61-2.47.92a1.58,1.58,0,0,1-1.45-.09c-.47-.28-1-.5-1.46-.73a5,5,0,0,0-3.11-.53,6,6,0,0,0-4.85,4.54,9.77,9.77,0,0,0-.2,2.75c0,.36-.05.4-.41.33-1.13-.21-2.26-.45-3.38-.72A20.16,20.16,0,0,1,4.92,4.47c-.62-.48-1.2-1-1.77-1.56C3,2.76,2.92,2.76,2.84,3a5.61,5.61,0,0,0-.33,1.94,6.31,6.31,0,0,0,1.58,4A13.7,13.7,0,0,0,6.81,11.2a.82.82,0,0,1,.34.33,12.51,12.51,0,0,1-5-.54c.06.12.08.18.11.23a9.94,9.94,0,0,0,2.55,3,8.77,8.77,0,0,0,2.75,1.54c.15.05.3.12.25.3s0,.68-.26.93a.13.13,0,0,1-.09,0,19.53,19.53,0,0,1-3.42,0c-.25,0-.5-.1-.8-.16.09.14.14.23.19.32a5.17,5.17,0,0,0,3.68,2.33,18.59,18.59,0,0,0,3.42.19c.11,0,.24,0,.34.05A14.29,14.29,0,0,1,2.16,23.51Z"/></g></g></svg>