<svg xmlns="http://www.w3.org/2000/svg" viewBox="0 0 26.36 26.3"><defs><style>.cls-1{fill:#fff;}</style></defs><g id="Layer_2" data-name="Layer 2"><g id="Layer_1-2" data-name="Layer 1"><path class="cls-1" d="M12.13,26.3a13.76,13.76,0,0,1-2-.35A12.91,12.91,0,0,1,.36,16,12.58,12.58,0,0,1,1.42,7.26,1.59,1.59,0,0,0,1.57,7c.18-.59.68-.59,1.21-.68a2.85,2.85,0,0,1-.6.53c-.27.23-.26.21,0,.41A1.43,1.43,0,0,0,3,7.5a13.09,13.09,0,0,0,3-.35.31.31,0,0,1,.38.17C6.8,8,7.18,8.58,7.57,9.2a.6.6,0,0,1,.1.39c0,.56,0,1.11,0,1.67a.6.6,0,0,0,.13.38c.53.72,1.07,1.44,1.6,2.17l.11.14a.22.22,0,0,0,.24,0c.1,0,.09-.11.09-.19a3.21,3.21,0,0,1,0-.66,5.6,5.6,0,0,1,.4.83,1.06,1.06,0,0,0,1.05.83,1.74,1.74,0,0,1,.22,0A2.81,2.81,0,0,1,13.64,16c.18.24.49.24.74.31s.28.16.17.38c-.23.45-.43.91-.66,1.36a.39.39,0,0,0,0,.43,11.05,11.05,0,0,1,1.38,3.46.86.86,0,0,1,0,.45c-.16.63-.29,1.25-.47,1.87a3.6,3.6,0,0,0,0,1.35c.06.73.06.62-.53.67l-.13,0Z"/><path class="cls-1" d="M26.36,14.22c-.11.65-.18,1.3-.33,2a12.91,12.91,0,0,1-1.94,4.39,13.07,13.07,0,0,1-4.63,4.17,13.69,13.69,0,0,1-3,1.16c-.19.05-.21,0-.18-.19a1.37,1.37,0,0,1,.7-1c.54-.3,1.05-.68,1.57-1a.57.57,0,0,0,.26-.33c.14-.4.3-.8.44-1.21a.48.48,0,0,1,.29-.3c.37-.16.74-.35,1.12-.51A.68.68,0,0,0,21,21c.41-.8.83-1.59,1.25-2.39.09-.15.05-.22-.09-.3-.36-.2-.71-.45-1.09-.63a5,5,0,0,1-1.82-1.54,1,1,0,0,0-.84-.45,4.23,4.23,0,0,1-.87-.2c-.53-.16-1.07-.23-1.61-.34a2.17,2.17,0,0,0-1.07.18.41.41,0,0,1-.51-.15,1.39,1.39,0,0,0-.94-.65c-.12,0-.16-.11-.16-.23s0-.29,0-.43c0-.33,0-.31-.3-.33a.71.71,0,0,0-.7.33c0,.06-.07.14-.15.13s-.07-.11-.09-.17c-.05-.22-.09-.44-.16-.65s0-.28.18-.36c.81-.39.81-.39,1.62,0l.14.07c.43.17.66.06.76-.38a1.6,1.6,0,0,1,.35-.7c.41-.46.79-.94,1.19-1.42a1,1,0,0,1,.36-.27c.59-.31,1.19-.6,1.79-.91a.61.61,0,0,1,.42-.06l.81.11c.13,0,.19,0,.22-.14a.53.53,0,0,0-.16-.66c-.2-.16-.36-.38-.56-.56A4.27,4.27,0,0,1,17.8,6.15a.35.35,0,0,0-.42-.25,1.47,1.47,0,0,1-1-.23,2.74,2.74,0,0,0-1.1-.22c-.13,0-.17.07-.19.19,0,.29-.11.59-.15.88s-.09.28-.31.22-.63-.13-.95-.18c-.16,0-.27-.09-.27-.28a1.84,1.84,0,0,0,0-.41c-.07-.23,0-.33.25-.33.65,0,.95-.35,1-1A4.82,4.82,0,0,1,14.74,4c0-.17.12-.21.27-.14s.44.19.67.27.25.16.21.33a.47.47,0,0,0,.41.6,2.53,2.53,0,0,1,.48.19.85.85,0,0,0,.87-.1c.15-.09.14-.14.05-.27a13.89,13.89,0,0,0-1.47-1.5c-.23-.22-.16-.45-.15-.69s.09-.08.16-.08a2.79,2.79,0,0,1,2.16,1.2,2.47,2.47,0,0,1,.36.9,2,2,0,0,0,.76,1.17c.35.27.66.59,1,.89a1,1,0,0,0,.24.15.29.29,0,0,0,.44-.14c0-.06.08-.11.11-.18a.93.93,0,0,1,1-.6A7.24,7.24,0,0,0,24,5.83c.12,0,.18,0,.24.13a13.21,13.21,0,0,1,2.08,6,.53.53,0,0,0,0,.12Z"/><path class="cls-1" d="M3.05,4.73A13.1,13.1,0,0,1,10.48.24c2.76-.58,7-.06,8.28,1a1.06,1.06,0,0,1-.63.07l-.81-.13a.69.69,0,0,0-.5.11,4.46,4.46,0,0,0-1.16,1,.59.59,0,0,1-.43.21l-1.66.15a3.08,3.08,0,0,1-1.09-.08.35.35,0,0,0-.46.21v0c-.5.8-.5.77-1.45.84a4.58,4.58,0,0,1-2-.25.32.32,0,0,0-.34,0,3.81,3.81,0,0,1-2.09.67,13,13,0,0,0-2.68.6A.65.65,0,0,1,3.05,4.73ZM13.79,2.06a1.93,1.93,0,0,0,1.53-.55l.08-.06c.53-.4.53-.4-.06-.72-.1-.06-.2-.16-.33-.09-.61.34-1.24.66-1.82,1-.07,0-.12.09,0,.15A.76.76,0,0,0,13.79,2.06Zm-3.94.49L11,2.25c.52-.14.51-.14.25-.6a.26.26,0,0,0-.39-.14.87.87,0,0,1-.92,0,.15.15,0,0,0-.21,0A4.26,4.26,0,0,1,9.12,2s-.13.08,0,.13A2.27,2.27,0,0,0,9.85,2.55Z"/></g></g></svg>